<svg xmlns="http://www.w3.org/2000/svg" width="80" height="80" viewBox="0 0 80 80" fill="none" role="img" aria-label="Curtis AI Chat logo">
  <defs>
    <linearGradient id="cGrad" x1="0" y1="0" x2="1" y2="1">
      <stop offset="0%" stop-color="#A78BFA"/>
      <stop offset="100%" stop-color="#6D28D9"/>
    </linearGradient>
    <linearGradient id="bubbleGrad" x1="0" y1="0" x2="0" y2="1">
      <stop offset="0%" stop-color="#4ADE80"/>
      <stop offset="100%" stop-color="#10B981"/>
    </linearGradient>
    <linearGradient id="bubbleSheen" x1="0" y1="0" x2="0" y2="1">
      <stop offset="0%" stop-color="#FFFFFF" stop-opacity="0.3"/>
      <stop offset="60%" stop-color="#FFFFFF" stop-opacity="0"/>
    </linearGradient>
  </defs>

  <!-- C — thick arc opening to the right -->
  <path d="M 58 16 A 28 28 0 1 0 58 64"
        stroke="url(#cGrad)"
        stroke-width="14"
        fill="none"
        stroke-linecap="round"/>

  <!-- Chat bubble nested in the C's cavity -->
  <g transform="translate(42 40)">
    <path d="M -8 -8 H 6 Q 10 -8 10 -4 V 2 Q 10 6 6 6 H -2 L -8 12 L -6 6 H -8 Q -12 6 -12 2 V -4 Q -12 -8 -8 -8 Z"
          fill="url(#bubbleGrad)"/>
    <path d="M -8 -8 H 6 Q 10 -8 10 -4 V 2 Q 10 6 6 6 H -2 L -8 12 L -6 6 H -8 Q -12 6 -12 2 V -4 Q -12 -8 -8 -8 Z"
          fill="url(#bubbleSheen)"/>
    <!-- typing dots -->
    <circle cx="-3" cy="-1" r="1.4" fill="#09090B" opacity="0.85"/>
    <circle cx="1"  cy="-1" r="1.4" fill="#09090B" opacity="0.85"/>
    <circle cx="5"  cy="-1" r="1.4" fill="#09090B" opacity="0.85"/>
  </g>
</svg>
